<?xml version="1.0" encoding="utf-8"?>
<!-- Generator: Adobe Illustrator 16.0.1, SVG Export Plug-In . SVG Version: 6.00 Build 0)  -->
<!DOCTYPE svg PUBLIC "-//W3C//DTD SVG 1.1//EN" "http://www.w3.org/Graphics/SVG/1.1/DTD/svg11.dtd">
<svg version="1.1" id="Layer_1" xmlns="http://www.w3.org/2000/svg" xmlns:xlink="http://www.w3.org/1999/xlink" x="0px" y="0px"
	 width="30.904px" height="18.373px" viewBox="0 0 30.904 18.373" enable-background="new 0 0 30.904 18.373" xml:space="preserve">
<g>
	<path fill="#FFFFFF" d="M1.5,3h27.904c0.828,0,1.5-0.671,1.5-1.5S30.232,0,29.404,0H1.5C0.672,0,0,0.671,0,1.5S0.672,3,1.5,3"/>
	<path fill="#FFFFFF" d="M1.5,10.687h27.904c0.828,0,1.5-0.671,1.5-1.5s-0.672-1.5-1.5-1.5H1.5c-0.828,0-1.5,0.671-1.5,1.5
		S0.672,10.687,1.5,10.687"/>
	<path fill="#FFFFFF" d="M1.5,18.373h27.904c0.828,0,1.5-0.67,1.5-1.5c0-0.828-0.672-1.5-1.5-1.5H1.5c-0.828,0-1.5,0.672-1.5,1.5
		C0,17.703,0.672,18.373,1.5,18.373"/>
</g>
</svg>
