<?xml version="1.0" encoding="utf-8"?>
<!-- Generator: Adobe Illustrator 16.0.1, SVG Export Plug-In . SVG Version: 6.00 Build 0)  -->
<!DOCTYPE svg PUBLIC "-//W3C//DTD SVG 1.1//EN" "http://www.w3.org/Graphics/SVG/1.1/DTD/svg11.dtd">
<svg version="1.1" id="Layer_1" xmlns="http://www.w3.org/2000/svg" xmlns:xlink="http://www.w3.org/1999/xlink" x="0px" y="0px"
	 width="114.362px" height="114.463px" viewBox="0 0 114.362 114.463" enable-background="new 0 0 114.362 114.463"
	 xml:space="preserve">
<g>
	<g>
		<linearGradient id="SVGID_1_" gradientUnits="userSpaceOnUse" x1="69.6245" y1="80.9844" x2="35.9818" y2="16.9029">
			<stop  offset="0" style="stop-color:#E30613"/>
			<stop  offset="0.1958" style="stop-color:#DF0714"/>
			<stop  offset="0.4098" style="stop-color:#D10A16"/>
			<stop  offset="0.6324" style="stop-color:#BC0E19"/>
			<stop  offset="0.8596" style="stop-color:#9D141D"/>
			<stop  offset="0.9677" style="stop-color:#8C1820"/>
		</linearGradient>
		<path fill-rule="evenodd" clip-rule="evenodd" fill="url(#SVGID_1_)" d="M114.362,96.754c0,9.781-7.932,17.709-17.709,17.709
			H17.71C7.93,114.463,0,106.535,0,96.754V17.811C0,8.032,7.93,0.101,17.71,0.101h78.943c9.777,0,17.709,7.931,17.709,17.709V96.754
			z"/>
		<path opacity="0.3" fill="#FFFFFF" d="M96.65,0H17.71C7.93,0,0,7.929,0,17.709v38.572c16.518,4.041,84.638-10.412,114.362-27.99
			V17.709C114.362,7.929,106.431,0,96.65,0z"/>
		<g>
			<path fill="#FFFFFF" d="M93.163,32.871c5.58,7.557,8.873,16.887,8.875,27.004c-0.002,12.574-5.092,23.939-13.33,32.182
				c-8.244,8.238-19.608,13.326-32.182,13.328c-12.574-0.002-23.937-5.09-32.18-13.328c-8.239-8.242-13.33-19.607-13.33-32.182
				c0-12.572,5.091-23.938,13.33-32.18c8.243-8.24,19.605-13.33,32.18-13.33c5.459,0,10.686,0.959,15.53,2.717
				c1.095,0.398,2.307-0.166,2.704-1.262c0.398-1.098-0.168-2.307-1.264-2.705c-5.297-1.923-11.016-2.972-16.971-2.972
				C29.062,10.145,6.797,32.408,6.795,59.875c0.002,27.467,22.267,49.73,49.731,49.73c27.467,0,49.731-22.264,49.732-49.73
				c0.002-11.041-3.604-21.262-9.7-29.512c-0.692-0.939-2.015-1.139-2.952-0.445C92.67,30.611,92.471,31.932,93.163,32.871z"/>
			<path fill="#FFFFFF" d="M47.75,56.895l4.733,4.732c0.393,0.395,0.937,0.619,1.492,0.619s1.1-0.225,1.493-0.619l10.605-10.605
				c0.824-0.824,0.824-2.162,0-2.984c-0.825-0.824-2.161-0.824-2.985,0l-9.113,9.113l-3.24-3.24c-0.825-0.826-2.162-0.826-2.985,0
				C46.926,54.734,46.926,56.07,47.75,56.895z"/>
		</g>
		<g>
			<g>
				<path fill="#FFFFFF" stroke="#FFFFFF" stroke-miterlimit="10" d="M71.497,29.479c0.821,0,1.491,0.67,1.491,1.49v52.605
					c0,0.824-0.67,1.49-1.491,1.49H41.922c-0.821,0-1.49-0.666-1.49-1.49V30.969c0-0.82,0.669-1.49,1.49-1.49H71.497 M71.497,28.482
					H41.922c-1.374,0-2.486,1.113-2.486,2.486v52.605c0,1.373,1.112,2.486,2.486,2.486h29.575c1.374,0,2.486-1.113,2.486-2.486
					V30.969C73.983,29.596,72.871,28.482,71.497,28.482L71.497,28.482z"/>
			</g>
			<g>
				<circle fill="#FFFFFF" cx="56.709" cy="77.361" r="2.738"/>
				<path fill="#FFFFFF" d="M56.709,75.123c1.237,0,2.236,1.004,2.236,2.238S57.946,79.6,56.709,79.6
					c-1.233,0-2.236-1.004-2.236-2.238S55.476,75.123,56.709,75.123 M56.709,74.123c-1.785,0-3.236,1.453-3.236,3.238
					s1.452,3.238,3.236,3.238s3.236-1.453,3.236-3.238S58.494,74.123,56.709,74.123L56.709,74.123z"/>
			</g>
			<g>
				<g>
					<rect x="54.481" y="31.836" fill="#FFFFFF" width="6.913" height="1.797"/>
					<path fill="#FFFFFF" d="M60.895,32.336v0.797h-5.913v-0.797H60.895 M61.895,31.336h-1h-5.913h-1v1v0.797v1h1h5.913h1v-1v-0.797
						V31.336L61.895,31.336z"/>
				</g>
				<g>
					<rect x="52.025" y="31.836" fill="#FFFFFF" width="2.369" height="1.797"/>
					<path fill="#FFFFFF" d="M53.895,32.336v0.797h-1.369v-0.797H53.895 M54.895,31.336h-1h-1.369h-1v1v0.797v1h1h1.369h1v-1v-0.797
						V31.336L54.895,31.336z"/>
				</g>
			</g>
			<g>
				<path fill="#FFFFFF" stroke="#FFFFFF" stroke-miterlimit="10" d="M68.59,36.768c0.553,0,1.003,0.449,1.003,1.004v33.451
					c0,0.553-0.45,1.002-1.003,1.002H44.83c-0.553,0-1.001-0.449-1.001-1.002V37.771c0-0.555,0.448-1.004,1.001-1.004H68.59
					 M68.59,35.773H44.83c-1.104,0-1.997,0.895-1.997,1.998v33.451c0,1.102,0.894,1.998,1.997,1.998h23.76
					c1.103,0,1.997-0.896,1.997-1.998V37.771C70.586,36.668,69.692,35.773,68.59,35.773L68.59,35.773z"/>
			</g>
		</g>
		<path fill-rule="evenodd" clip-rule="evenodd" fill="#FFFFFF" d="M86.688,16.385c-6.069,1.359-10.301,4.41-10.301,7.955
			c0,4.811,7.791,8.711,17.402,8.711c9.609,0,17.402-3.9,17.402-8.711c0-3.592-4.345-6.678-10.548-8.01
			c0.613-3.453-2.313-6.154-4.199-8.875c-1.213-1.751-2.49-3.493-2.314-5.529c-3.749,5.786,3.328,9.843,4.957,14.771
			c0.633,1.918,0.2,3.9-1.312,5.412c-0.773,0.775-0.256-1.752-0.912-2.729c-2.163-3.207-4.706-5.639-6.393-8.954
			c-0.338-0.663-0.682-1.493-0.447-2.342c-1.203,2.201-1.417,4.655-0.201,6.762C92.22,19,98.578,25.023,93.528,28.23
			c-0.677,0.428-0.12-1.715-0.771-2.691C90.754,22.525,88.094,19.6,86.688,16.385C86.688,16.385,88.094,19.6,86.688,16.385
			L86.688,16.385z"/>
	</g>
</g>
</svg>
