<?xml version="1.0" encoding="utf-8"?>
<!-- Generator: Adobe Illustrator 16.0.1, SVG Export Plug-In . SVG Version: 6.00 Build 0)  -->
<!DOCTYPE svg PUBLIC "-//W3C//DTD SVG 1.1//EN" "http://www.w3.org/Graphics/SVG/1.1/DTD/svg11.dtd">
<svg version="1.1" id="Layer_1" xmlns="http://www.w3.org/2000/svg" xmlns:xlink="http://www.w3.org/1999/xlink" x="0px" y="0px"
	 width="26.723px" height="25.992px" viewBox="0 0 26.723 25.992" enable-background="new 0 0 26.723 25.992" xml:space="preserve">
<g>
	<path fill="#FFFFFF" d="M18.959,15.859c0.566,0.278,1.748,0.887,2.805,1.438c0.529,0.275,1.029,0.537,1.408,0.738
		c0.189,0.1,0.35,0.185,0.467,0.248c0.059,0.031,0.105,0.057,0.139,0.075l0.037,0.021l0.006,0.004l0.238-0.405l-0.246,0.399
		l0.008,0.006l0.238-0.405l-0.246,0.399c0.07,0.044,0.135,0.082,0.219,0.141c0.121,0.084,0.254,0.201,0.324,0.299
		c0.074,0.104,0.082,0.147,0.084,0.196c0,0.926,0,4.071,0,4.491h0.25l-0.25-0.023v0.023h0.25l-0.25-0.023h0.002l-0.002-0.001v0.001
		h0.002l-0.002-0.001l-0.08,0.158l-0.061,0.041c-0.029,0.012-0.078,0.028-0.186,0.029c-1.119,0-20.384,0-21.503,0
		c-0.123-0.002-0.169-0.022-0.197-0.034c-0.038-0.02-0.063-0.043-0.095-0.101l-0.031-0.077l-0.004-0.019l-0.188,0.026h0.189
		l-0.001-0.026l-0.188,0.026h0.189c0-0.42,0-3.565,0-4.491l0.03-0.11c0.034-0.073,0.134-0.192,0.256-0.292
		c0.061-0.05,0.124-0.095,0.181-0.133c0.059-0.039,0.105-0.066,0.16-0.101l-0.245-0.398l0.236,0.404l0.009-0.006l-0.245-0.398
		l0.236,0.404c0.007-0.005,0.1-0.057,0.222-0.121c0.874-0.469,3.662-1.921,4.64-2.402L6.755,13.81
		c-0.606,0.298-1.783,0.905-2.85,1.46c-0.533,0.277-1.036,0.541-1.421,0.744c-0.193,0.103-0.356,0.189-0.482,0.257
		c-0.063,0.034-0.116,0.063-0.16,0.087c-0.046,0.026-0.075,0.041-0.126,0.073c-0.043,0.026-0.181,0.107-0.339,0.219
		c-0.24,0.172-0.554,0.421-0.839,0.8C0.255,17.823-0.001,18.366,0,19.013c0,0.926,0,4.071,0,4.491c0.001,0.261,0.047,0.5,0.135,0.76
		c0.132,0.382,0.372,0.805,0.794,1.153c0.418,0.352,1.025,0.581,1.681,0.575c1.119,0,20.384,0,21.503,0
		c0.438,0.001,0.854-0.095,1.205-0.269c0.533-0.262,0.891-0.678,1.1-1.069c0.105-0.197,0.18-0.394,0.229-0.582
		c0.049-0.19,0.076-0.372,0.076-0.568c0-0.42,0-3.565,0-4.491c0.002-0.428-0.111-0.819-0.271-1.136
		c-0.242-0.477-0.568-0.798-0.844-1.027c-0.139-0.114-0.268-0.206-0.373-0.276s-0.195-0.123-0.227-0.142
		c-0.051-0.032-0.08-0.047-0.127-0.073c-0.162-0.09-0.469-0.253-0.869-0.464c-1.203-0.633-3.193-1.666-4.043-2.084L18.959,15.859z"
		/>
	<path fill="#FFFFFF" d="M19.264,7.71h-1.143c0,1.535-0.561,2.907-1.436,3.881c-0.881,0.975-2.045,1.543-3.324,1.545
		c-1.279-0.001-2.443-0.57-3.323-1.545C9.163,10.617,8.602,9.245,8.603,7.71c-0.001-1.535,0.561-2.907,1.436-3.881
		c0.88-0.975,2.044-1.543,3.323-1.545c1.279,0.001,2.443,0.57,3.324,1.545c0.875,0.974,1.436,2.346,1.436,3.881H19.264h1.143
		c-0.002-2.092-0.762-4.004-2.021-5.408C17.129,0.9,15.342-0.001,13.361,0c-1.979-0.001-3.767,0.9-5.022,2.302
		C7.079,3.706,6.318,5.618,6.317,7.71c0.001,2.092,0.762,4.005,2.021,5.408c1.256,1.403,3.043,2.304,5.022,2.302
		c1.98,0.002,3.768-0.899,5.023-2.302c1.26-1.403,2.02-3.315,2.021-5.408H19.264z"/>
</g>
</svg>
