<?xml version="1.0" encoding="utf-8"?>
<!-- Generator: Adobe Illustrator 16.0.1, SVG Export Plug-In . SVG Version: 6.00 Build 0)  -->
<!DOCTYPE svg PUBLIC "-//W3C//DTD SVG 1.1//EN" "http://www.w3.org/Graphics/SVG/1.1/DTD/svg11.dtd">
<svg version="1.1" id="Layer_1" xmlns="http://www.w3.org/2000/svg" xmlns:xlink="http://www.w3.org/1999/xlink" x="0px" y="0px"
	 width="23.356px" height="19.576px" viewBox="0 0 23.356 19.576" enable-background="new 0 0 23.356 19.576" xml:space="preserve">
<g>
	<path fill="#FFFFFF" d="M21.073,7.027v10.171l-0.094,0.094H2.377l-0.093-0.094V7.027H0v10.171c0,1.314,1.063,2.377,2.377,2.377
		h18.602c1.314,0,2.377-1.063,2.377-2.377V7.027H21.073z"/>
	<path fill="#FFFFFF" d="M11.219,12.285l0.769-0.845c-0.001-0.001-0.55-0.5-1.388-1.261C8.086,7.896,2.985,3.261,2.417,2.741
		c-0.01-0.008-0.051-0.058-0.083-0.138c-0.031-0.078-0.051-0.183-0.05-0.266c0-0.057,0.008-0.103,0.015-0.126l0.006-0.017L2.3,2.192
		l0.005,0.003h0L2.3,2.192l0.005,0.003L2.133,2.093L2.23,2.264l0.075-0.068L2.133,2.093L2.23,2.264L2.136,2.098l0.047,0.186
		l0.048-0.02L2.136,2.098l0.047,0.186L2.172,2.24l0.005,0.045l0.006-0.002L2.172,2.24l0.005,0.045l0.015-0.001
		c0.676,0,18.281,0,18.957,0l0.014,0.001l0.002-0.015l-0.002,0.015l0,0l0.002-0.015l-0.002,0.015l0.039-0.193L21.088,2.25
		l0.074,0.035l0.039-0.193L21.088,2.25l0.125-0.174l-0.172,0.13l0.047,0.044l0.125-0.174l-0.172,0.13l0.061-0.045l-0.068,0.032
		l0.008,0.013l0.061-0.045l-0.068,0.032c0.002,0.001,0.023,0.06,0.021,0.145c0.002,0.083-0.018,0.188-0.051,0.266
		c-0.029,0.08-0.07,0.131-0.082,0.138c-0.377,0.346-2.771,2.522-5.068,4.61c-1.15,1.044-2.275,2.066-3.113,2.827
		s-1.387,1.26-1.388,1.261l-0.044,0.039l-0.039,0.044l0.41,0.368l-0.299-0.467c-0.045,0.029-0.063,0.047-0.111,0.099l0.41,0.368
		l-0.299-0.467l0.293,0.456v-0.536c-0.158,0.002-0.25,0.054-0.293,0.08l0.293,0.456v-0.536v0.574l0.219-0.532
		c-0.059-0.025-0.143-0.043-0.219-0.042v0.574l0.219-0.532l-0.119,0.29l0.215-0.235c-0.002-0.002-0.035-0.03-0.096-0.055
		l-0.119,0.29l0.215-0.235L11.219,12.285l-0.768,0.846c0.166,0.152,0.36,0.281,0.572,0.369c0.213,0.086,0.44,0.129,0.65,0.129
		c0.426-0.002,0.74-0.154,0.939-0.281c0.201-0.131,0.311-0.248,0.357-0.299l-0.85-0.764l0.768,0.846c0.001,0,8.807-8,9.576-8.703
		c0.314-0.29,0.525-0.634,0.666-0.987c0.139-0.354,0.209-0.725,0.209-1.103c-0.002-0.505-0.123-1.047-0.492-1.531
		c-0.184-0.239-0.436-0.453-0.734-0.595C21.815,0.067,21.481-0.001,21.149,0C20.473,0,2.868,0,2.192,0
		C1.861-0.001,1.525,0.067,1.228,0.212C0.776,0.426,0.445,0.799,0.26,1.179C0.071,1.563,0.001,1.957,0,2.338
		c0.001,0.378,0.071,0.748,0.21,1.104c0.14,0.354,0.351,0.696,0.666,0.986c0.769,0.702,9.574,8.703,9.576,8.703L11.219,12.285z"/>
</g>
</svg>
