<?xml version="1.0" encoding="utf-8"?>
<!-- Generator: Adobe Illustrator 16.0.1, SVG Export Plug-In . SVG Version: 6.00 Build 0)  -->
<!DOCTYPE svg PUBLIC "-//W3C//DTD SVG 1.1//EN" "http://www.w3.org/Graphics/SVG/1.1/DTD/svg11.dtd">
<svg version="1.1" id="Layer_1" xmlns="http://www.w3.org/2000/svg" xmlns:xlink="http://www.w3.org/1999/xlink" x="0px" y="0px"
	 width="17.041px" height="16.705px" viewBox="0 0 17.041 16.705" enable-background="new 0 0 17.041 16.705" xml:space="preserve">
<g>
	<g>
		<path fill="#616461" d="M16.833,7.953L9.088,0.209c-0.278-0.279-0.73-0.279-1.01,0l-7.869,7.87c-0.278,0.279-0.278,0.731,0,1.01
			c0.279,0.278,0.73,0.278,1.01,0l7.364-7.365l7.24,7.239c0.279,0.279,0.73,0.279,1.01,0C17.11,8.684,17.11,8.231,16.833,7.953z"/>
		<path fill="#616461" d="M2.009,10.035v5.956c0,0.188,0.076,0.372,0.209,0.505s0.316,0.209,0.505,0.209H6.52
			c0.188,0,0.372-0.076,0.505-0.209c0.133-0.134,0.209-0.317,0.209-0.505V12.11h2.083v3.881c0,0.188,0.076,0.372,0.209,0.505
			s0.316,0.209,0.505,0.209h3.797c0.189,0,0.373-0.076,0.506-0.209c0.133-0.134,0.209-0.317,0.209-0.505v-5.956
			c0-0.395-0.32-0.713-0.715-0.713s-0.713,0.319-0.713,0.713v5.242h-2.369v-3.881c0-0.188-0.076-0.372-0.209-0.505
			s-0.318-0.209-0.506-0.209H6.52c-0.188,0-0.372,0.076-0.505,0.209s-0.209,0.316-0.209,0.505v3.881H3.437v-5.242
			c0-0.395-0.32-0.713-0.714-0.713C2.328,9.321,2.009,9.64,2.009,10.035z"/>
	</g>
</g>
</svg>
