<?xml version="1.0" encoding="utf-8"?>
<!-- Generator: Adobe Illustrator 16.0.1, SVG Export Plug-In . SVG Version: 6.00 Build 0)  -->
<!DOCTYPE svg PUBLIC "-//W3C//DTD SVG 1.1//EN" "http://www.w3.org/Graphics/SVG/1.1/DTD/svg11.dtd">
<svg version="1.1" id="Layer_1" xmlns="http://www.w3.org/2000/svg" xmlns:xlink="http://www.w3.org/1999/xlink" x="0px" y="0px"
	 width="152.171px" height="49.777px" viewBox="0 0 152.171 49.777" enable-background="new 0 0 152.171 49.777"
	 xml:space="preserve">
<g>
	<path fill="#1D1D1B" d="M152.171,43.05c0,3.715-3.011,6.728-6.726,6.728H6.728C3.013,49.777,0,46.765,0,43.05V6.727
		C0,3.013,3.013,0,6.728,0h138.718c3.715,0,6.726,3.013,6.726,6.727V43.05z"/>
	<g id="PLAY_1_">
		<defs>
			<path id="SVGID_1_" d="M32.978,21.911l-6.861-3.962c0,0-12.501-7.218-13.235-7.642c-0.734-0.425-1.466-0.168-1.466,0.72
				c0,1.476,0,15.41,0,15.41s0,15.059,0,15.724s0.522,0.952,1.161,0.583c0.638-0.369,13.54-7.818,13.54-7.818l6.861-3.962
				c0,0,5.821-3.36,6.596-3.807c0.773-0.447,0.698-1.061,0.046-1.412S32.978,21.911,32.978,21.911z"/>
		</defs>
		<clipPath id="SVGID_2_">
			<use xlink:href="#SVGID_1_"  overflow="visible"/>
		</clipPath>
		<linearGradient id="SVGID_3_" gradientUnits="userSpaceOnUse" x1="19.9136" y1="9.583" x2="19.9136" y2="43.2925">
			<stop  offset="0" style="stop-color:#207AB0"/>
			<stop  offset="0.3206" style="stop-color:#4A98B5"/>
			<stop  offset="0.7782" style="stop-color:#81C0BB"/>
			<stop  offset="1" style="stop-color:#97CFBE"/>
		</linearGradient>
		<polygon clip-path="url(#SVGID_2_)" fill="url(#SVGID_3_)" points="11.415,9.583 11.415,26.438 11.415,43.292 28.412,26.438 		"/>
		<linearGradient id="SVGID_4_" gradientUnits="userSpaceOnUse" x1="11.415" y1="17.9492" x2="32.9775" y2="17.9492">
			<stop  offset="0" style="stop-color:#59BBAA"/>
			<stop  offset="1" style="stop-color:#E6E89A"/>
		</linearGradient>
		<polygon clip-path="url(#SVGID_2_)" fill="url(#SVGID_4_)" points="32.978,21.911 26.116,17.949 11.415,9.461 11.415,9.583 
			28.412,26.438 		"/>
		<linearGradient id="SVGID_5_" gradientUnits="userSpaceOnUse" x1="22.1963" y1="26.4375" x2="22.1963" y2="43.4141">
			<stop  offset="0" style="stop-color:#E43332"/>
			<stop  offset="0.1636" style="stop-color:#D43643"/>
			<stop  offset="0.7271" style="stop-color:#A23E7A"/>
			<stop  offset="1" style="stop-color:#8E4190"/>
		</linearGradient>
		<polygon clip-path="url(#SVGID_2_)" fill="url(#SVGID_5_)" points="11.415,43.292 11.415,43.414 26.116,34.926 32.978,30.964 
			28.412,26.438 		"/>
		<linearGradient id="SVGID_6_" gradientUnits="userSpaceOnUse" x1="34.6152" y1="21.9111" x2="34.6152" y2="30.9639">
			<stop  offset="0" style="stop-color:#F08779"/>
			<stop  offset="0.6326" style="stop-color:#F8B474"/>
			<stop  offset="1" style="stop-color:#FCCA72"/>
		</linearGradient>
		<polygon clip-path="url(#SVGID_2_)" fill="url(#SVGID_6_)" points="32.978,21.911 28.412,26.438 32.978,30.964 40.818,26.438 		
			"/>
	</g>
	<g>
		<path fill="#F9F9F9" d="M118.427,33.026c-0.638,0-1.221-0.116-1.748-0.353c-0.528-0.236-0.971-0.598-1.328-1.087h-0.108
			c0.072,0.572,0.108,1.116,0.108,1.628v4.034h-1.484V23.045h1.207l0.205,1.342h0.072c0.382-0.537,0.826-0.924,1.333-1.162
			c0.506-0.239,1.088-0.358,1.743-0.358c1.301,0,2.304,0.444,3.01,1.333c0.707,0.889,1.061,2.135,1.061,3.738
			c0,1.61-0.359,2.861-1.077,3.753C120.7,32.582,119.703,33.026,118.427,33.026z M118.213,24.127c-1.003,0-1.727,0.278-2.174,0.832
			c-0.447,0.555-0.677,1.438-0.688,2.648v0.33c0,1.378,0.229,2.363,0.688,2.957c0.46,0.593,1.196,0.889,2.209,0.889
			c0.847,0,1.511-0.342,1.991-1.027c0.479-0.686,0.72-1.631,0.72-2.836c0-1.223-0.24-2.161-0.72-2.813
			C119.759,24.454,119.083,24.127,118.213,24.127z"/>
		<path fill="#F9F9F9" d="M125.935,32.848h-1.484V18.93h1.484V32.848z"/>
		<path fill="#F9F9F9" d="M134.471,32.848l-0.295-1.396h-0.071c-0.489,0.615-0.977,1.031-1.463,1.248
			c-0.485,0.218-1.093,0.326-1.82,0.326c-0.971,0-1.733-0.25-2.285-0.751c-0.552-0.5-0.827-1.213-0.827-2.138
			c0-1.979,1.583-3.017,4.75-3.112l1.663-0.054v-0.608c0-0.77-0.165-1.337-0.496-1.704s-0.86-0.55-1.588-0.55
			c-0.817,0-1.742,0.25-2.773,0.752l-0.456-1.137c0.483-0.262,1.013-0.468,1.589-0.616c0.574-0.149,1.151-0.225,1.73-0.225
			c1.168,0,2.034,0.259,2.599,0.778c0.563,0.52,0.845,1.351,0.845,2.496v6.689H134.471z M131.117,31.802
			c0.924,0,1.65-0.253,2.178-0.76s0.792-1.217,0.792-2.129v-0.887l-1.485,0.063c-1.181,0.043-2.031,0.226-2.554,0.552
			c-0.521,0.324-0.783,0.83-0.783,1.516c0,0.536,0.163,0.945,0.488,1.225C130.078,31.661,130.532,31.802,131.117,31.802z"/>
		<path fill="#F9F9F9" d="M136.434,23.045h1.592l2.146,5.59c0.472,1.276,0.765,2.198,0.878,2.766h0.071
			c0.077-0.306,0.24-0.825,0.487-1.563c0.247-0.736,1.057-3,2.429-6.793h1.592l-4.213,11.162c-0.418,1.104-0.904,1.886-1.463,2.35
			c-0.558,0.462-1.242,0.692-2.052,0.692c-0.454,0-0.9-0.051-1.343-0.152v-1.188c0.328,0.07,0.695,0.107,1.101,0.107
			c1.02,0,1.747-0.572,2.183-1.719l0.545-1.395L136.434,23.045z"/>
	</g>
	<g>
		<path fill="#F9F9F9" d="M90.922,23.955c0.472,0.391,1.455,1.21,1.455,2.77c0,1.516-0.86,2.235-1.722,2.911
			c-0.267,0.266-0.574,0.555-0.574,1.006c0,0.45,0.308,0.696,0.533,0.881l0.739,0.573c0.901,0.759,1.721,1.456,1.721,2.871
			c0,1.928-1.866,3.875-5.392,3.875c-2.974,0-4.408-1.414-4.408-2.933c0-0.738,0.367-1.783,1.579-2.501
			c1.27-0.779,2.994-0.881,3.916-0.943c-0.288-0.369-0.615-0.759-0.615-1.394c0-0.348,0.103-0.553,0.205-0.801
			c-0.227,0.021-0.452,0.042-0.657,0.042c-2.173,0-3.403-1.621-3.403-3.22c0-0.943,0.432-1.989,1.312-2.747
			c1.17-0.963,2.564-1.128,3.672-1.128h4.223l-1.313,0.737H90.922z M89.467,33.061c-0.164-0.021-0.268-0.021-0.472-0.021
			c-0.185,0-1.293,0.041-2.153,0.329c-0.451,0.163-1.764,0.655-1.764,2.111c0,1.455,1.416,2.503,3.609,2.503
			c1.968,0,3.015-0.945,3.015-2.216C91.702,34.719,91.024,34.168,89.467,33.061z M90.061,29.164
			c0.472-0.473,0.513-1.128,0.513-1.497c0-1.477-0.882-3.772-2.583-3.772c-0.534,0-1.107,0.266-1.436,0.677
			c-0.348,0.431-0.452,0.983-0.452,1.517c0,1.374,0.801,3.65,2.564,3.65C89.18,29.738,89.732,29.492,90.061,29.164z"/>
		<path fill="#F9F9F9" d="M78.014,32.732c-3.254,0-4.994-2.539-4.994-4.832c0-2.682,2.189-4.975,5.303-4.975
			c3.008,0,4.892,2.354,4.892,4.832C83.214,30.172,81.352,32.732,78.014,32.732z M80.572,31.074
			c0.492-0.656,0.615-1.475,0.615-2.273c0-1.802-0.859-5.241-3.398-5.241c-0.676,0-1.351,0.268-1.842,0.698
			c-0.799,0.715-0.943,1.617-0.943,2.498c0,2.025,1.004,5.361,3.481,5.361C79.283,32.117,80.103,31.729,80.572,31.074z"/>
		<path fill="#F9F9F9" d="M66.918,32.732c-3.255,0-4.996-2.539-4.996-4.832c0-2.682,2.192-4.975,5.304-4.975
			c3.009,0,4.893,2.354,4.893,4.832C72.118,30.172,70.255,32.732,66.918,32.732z M69.477,31.074
			c0.491-0.656,0.615-1.475,0.615-2.273c0-1.802-0.86-5.241-3.399-5.241c-0.675,0-1.351,0.268-1.842,0.698
			c-0.798,0.715-0.941,1.617-0.941,2.498c0,2.025,1.003,5.361,3.48,5.361C68.188,32.117,69.006,31.729,69.477,31.074z"/>
		<path fill="#F9F9F9" d="M60.358,32.411l-2.943,0.68c-1.194,0.186-2.264,0.349-3.396,0.349c-5.681,0-7.841-4.178-7.841-7.45
			c0-3.993,3.066-7.696,8.314-7.696c1.112,0,2.182,0.164,3.148,0.432c1.544,0.433,2.265,0.967,2.717,1.276l-1.708,1.626
			l-0.721,0.164l0.516-0.824c-0.7-0.679-1.978-1.934-4.404-1.934c-3.252,0-5.702,2.471-5.702,6.072c0,3.868,2.799,7.511,7.286,7.511
			c1.318,0,1.995-0.267,2.614-0.514v-3.313l-3.108,0.165l1.646-0.887h4.363l-0.535,0.514c-0.145,0.125-0.165,0.166-0.206,0.33
			c-0.021,0.186-0.041,0.782-0.041,0.988V32.411z"/>
		<path fill="#F9F9F9" d="M97.428,31.818c-0.68-0.062-0.822-0.185-0.822-0.988v-0.227V19.182c0.005-0.045,0.007-0.09,0.012-0.133
			c0.082-0.721,0.288-0.844,0.928-1.215h-2.944l-1.545,0.741h1.574v0.01l-0.001-0.008v12.026v0.68c0,0.411-0.082,0.474-0.556,1.09
			h3.644l0.761-0.451C98.128,31.879,97.778,31.859,97.428,31.818z"/>
		<path fill="#F9F9F9" d="M105.803,32.008c-0.225,0.123-0.449,0.267-0.674,0.368c-0.676,0.307-1.37,0.389-1.984,0.389
			c-0.652,0-1.675-0.042-2.718-0.798c-1.451-1.022-2.084-2.78-2.084-4.313c0-3.167,2.575-4.721,4.681-4.721
			c0.735,0,1.493,0.184,2.105,0.572c1.021,0.674,1.287,1.553,1.43,2.022l-4.803,1.943l-1.573,0.122
			c0.51,2.596,2.268,4.107,4.21,4.107c1.042,0,1.799-0.368,2.493-0.715L105.803,32.008z M103.882,25.916
			c0.388-0.143,0.592-0.266,0.592-0.552c0-0.816-0.919-1.757-2.023-1.757c-0.819,0-2.351,0.634-2.351,2.841
			c0,0.348,0.041,0.715,0.063,1.084L103.882,25.916z"/>
		<g>
			<path fill="#F9F9F9" d="M107.775,23.072v1.349h-0.164v-1.349h-0.446v-0.14h1.056v0.14H107.775z"/>
			<path fill="#F9F9F9" d="M109.614,24.421v-1.36h-0.008l-0.415,1.36h-0.129l-0.418-1.36h-0.007v1.36h-0.148v-1.488h0.256
				l0.379,1.203h0.006l0.373-1.203h0.258v1.488H109.614z"/>
		</g>
	</g>
	<g>
		<path fill="#FCFCFC" d="M50.267,14.285h-1.022c0-0.141-0.098-0.54-0.292-1.195h-1.476c-0.201,0.646-0.301,1.044-0.301,1.195
			h-0.962c0-0.083,0.249-0.766,0.746-2.046s0.746-1.985,0.746-2.115h1.208c0,0.121,0.226,0.816,0.676,2.085
			C50.041,13.479,50.267,14.17,50.267,14.285z M48.789,12.479c-0.363-1.1-0.547-1.694-0.547-1.783h-0.05
			c0,0.083-0.189,0.678-0.565,1.783H48.789z"/>
		<path fill="#FCFCFC" d="M54.388,14.285h-0.79c0-0.088-0.293-0.549-0.879-1.384c-0.613-0.88-0.963-1.482-1.048-1.806h-0.052
			c0.053,0.466,0.08,0.888,0.08,1.266c0,0.525,0.015,1.167,0.045,1.924h-0.786c0.031-0.661,0.048-1.387,0.048-2.177
			c0-0.777-0.017-1.439-0.048-1.984h0.949c0,0.112,0.263,0.563,0.789,1.352c0.561,0.837,0.882,1.405,0.965,1.703h0.049
			c-0.052-0.475-0.077-0.901-0.077-1.278c0-0.577-0.016-1.169-0.044-1.776h0.799c-0.031,0.528-0.046,1.19-0.046,1.984
			C54.342,12.91,54.356,13.636,54.388,14.285z"/>
		<path fill="#FCFCFC" d="M59.02,12.061c0,0.605-0.194,1.133-0.582,1.585s-0.931,0.678-1.63,0.678c-0.315,0-0.75-0.013-1.304-0.038
			c0.027-0.644,0.041-1.369,0.041-2.177c0-0.775-0.014-1.437-0.041-1.984h0.559c0.092,0,0.229-0.004,0.409-0.01
			c0.182-0.007,0.3-0.009,0.355-0.009c0.769,0,1.326,0.191,1.673,0.574C58.847,11.063,59.02,11.524,59.02,12.061z M58.146,12.198
			c0-0.409-0.119-0.754-0.357-1.034s-0.604-0.42-1.093-0.42c-0.093,0-0.218,0.01-0.378,0.028c0.021,0.426,0.032,0.871,0.032,1.336
			c0,0.509,0.011,1.015,0.032,1.515c0.138,0.027,0.276,0.042,0.416,0.042c0.457,0,0.797-0.143,1.018-0.427
			C58.036,12.953,58.146,12.607,58.146,12.198z"/>
		<path fill="#FCFCFC" d="M63.29,14.285h-0.945c-0.247-0.755-0.437-1.22-0.569-1.396c-0.132-0.177-0.345-0.266-0.639-0.266
			c-0.124,0-0.242,0.002-0.355,0.003c0,0.548,0.01,1.101,0.029,1.659h-0.889c0.027-0.644,0.041-1.369,0.041-2.177
			c0-0.775-0.014-1.437-0.041-1.984h0.553c0.064,0,0.197-0.004,0.401-0.01c0.204-0.007,0.392-0.009,0.564-0.009
			c0.978,0,1.466,0.334,1.466,1.003c0,0.53-0.278,0.9-0.837,1.108v0.048c0.215,0.06,0.404,0.229,0.566,0.503
			C62.797,13.044,63.016,13.55,63.29,14.285z M62.093,11.345c0-0.424-0.273-0.636-0.819-0.636c-0.199,0-0.376,0.015-0.53,0.045
			c0.024,0.33,0.035,0.76,0.035,1.291c0.117,0.004,0.216,0.006,0.297,0.006C61.753,12.051,62.093,11.815,62.093,11.345z"/>
		<path fill="#FCFCFC" d="M67.871,12.127c0,0.654-0.199,1.197-0.601,1.627c-0.4,0.431-0.896,0.646-1.485,0.646
			c-0.563,0-1.034-0.197-1.413-0.594c-0.379-0.395-0.569-0.896-0.569-1.507c0-0.653,0.201-1.196,0.602-1.627
			c0.4-0.43,0.896-0.645,1.486-0.645c0.562,0,1.032,0.196,1.412,0.591C67.682,11.014,67.871,11.517,67.871,12.127z M66.99,12.221
			c0-0.445-0.114-0.807-0.342-1.084c-0.229-0.276-0.51-0.415-0.845-0.415c-0.311,0-0.575,0.14-0.793,0.419
			c-0.217,0.278-0.325,0.631-0.325,1.058c0,0.442,0.114,0.803,0.344,1.082c0.229,0.277,0.51,0.417,0.842,0.417
			c0.311,0,0.575-0.141,0.792-0.421C66.881,12.996,66.99,12.645,66.99,12.221z"/>
		<path fill="#FCFCFC" d="M69.679,14.285h-0.905c0.028-0.661,0.042-1.387,0.042-2.177c0-0.777-0.014-1.439-0.042-1.984h0.905
			c-0.027,0.537-0.042,1.198-0.042,1.984C69.637,12.912,69.651,13.637,69.679,14.285z"/>
		<path fill="#FCFCFC" d="M74.312,12.061c0,0.605-0.194,1.133-0.582,1.585s-0.932,0.678-1.63,0.678c-0.315,0-0.75-0.013-1.304-0.038
			c0.026-0.644,0.041-1.369,0.041-2.177c0-0.775-0.015-1.437-0.041-1.984h0.559c0.092,0,0.229-0.004,0.409-0.01
			c0.182-0.007,0.3-0.009,0.355-0.009c0.769,0,1.326,0.191,1.673,0.574C74.138,11.063,74.312,11.524,74.312,12.061z M73.438,12.198
			c0-0.409-0.119-0.754-0.357-1.034s-0.604-0.42-1.094-0.42c-0.092,0-0.217,0.01-0.377,0.028c0.021,0.426,0.031,0.871,0.031,1.336
			c0,0.509,0.012,1.015,0.033,1.515c0.138,0.027,0.276,0.042,0.415,0.042c0.458,0,0.798-0.143,1.019-0.427
			C73.328,12.953,73.438,12.607,73.438,12.198z"/>
		<path fill="#FCFCFC" d="M80.457,14.285h-1.023c0-0.141-0.097-0.54-0.291-1.195h-1.477c-0.2,0.646-0.301,1.044-0.301,1.195h-0.961
			c0-0.083,0.249-0.766,0.746-2.046s0.746-1.985,0.746-2.115h1.208c0,0.121,0.226,0.816,0.676,2.085
			C80.231,13.479,80.457,14.17,80.457,14.285z M78.979,12.479c-0.364-1.1-0.547-1.694-0.547-1.783h-0.051
			c0,0.083-0.188,0.678-0.565,1.783H78.979z"/>
		<path fill="#FCFCFC" d="M84.185,11.214c0,0.509-0.189,0.886-0.567,1.128c-0.379,0.242-0.843,0.365-1.392,0.365
			c-0.101,0-0.172-0.003-0.215-0.008c0,0.401,0.012,0.93,0.035,1.586h-0.897c0.027-0.615,0.041-1.341,0.041-2.177
			c0-0.767-0.014-1.429-0.041-1.984h0.556c0.079,0,0.229-0.004,0.454-0.01c0.224-0.007,0.417-0.009,0.581-0.009
			c0.405,0,0.747,0.091,1.026,0.273C84.045,10.563,84.185,10.841,84.185,11.214z M83.36,11.389c0-0.455-0.303-0.684-0.908-0.684
			c-0.151,0-0.312,0.017-0.479,0.049c0.023,0.402,0.035,0.858,0.035,1.367c0.054,0.005,0.115,0.006,0.186,0.006
			C82.972,12.127,83.36,11.881,83.36,11.389z"/>
		<path fill="#FCFCFC" d="M88.018,11.214c0,0.509-0.189,0.886-0.567,1.128c-0.379,0.242-0.843,0.365-1.392,0.365
			c-0.101,0-0.172-0.003-0.215-0.008c0,0.401,0.012,0.93,0.036,1.586h-0.898c0.027-0.615,0.041-1.341,0.041-2.177
			c0-0.767-0.014-1.429-0.041-1.984h0.556c0.078,0,0.23-0.004,0.454-0.01c0.224-0.007,0.417-0.009,0.581-0.009
			c0.405,0,0.747,0.091,1.026,0.273C87.878,10.563,88.018,10.841,88.018,11.214z M87.192,11.389c0-0.455-0.302-0.684-0.907-0.684
			c-0.151,0-0.312,0.017-0.479,0.049c0.023,0.402,0.035,0.858,0.035,1.367c0.054,0.005,0.115,0.006,0.186,0.006
			C86.804,12.127,87.192,11.881,87.192,11.389z"/>
		<path fill="#FCFCFC" d="M94.284,12.127c0,0.654-0.2,1.197-0.601,1.627c-0.4,0.431-0.896,0.646-1.486,0.646
			c-0.563,0-1.033-0.197-1.412-0.594c-0.38-0.395-0.569-0.896-0.569-1.507c0-0.653,0.2-1.196,0.601-1.627
			c0.4-0.43,0.896-0.645,1.486-0.645c0.563,0,1.033,0.196,1.412,0.591C94.095,11.014,94.284,11.517,94.284,12.127z M93.402,12.221
			c0-0.445-0.114-0.807-0.343-1.084c-0.228-0.276-0.509-0.415-0.843-0.415c-0.312,0-0.576,0.14-0.793,0.419
			c-0.217,0.278-0.325,0.631-0.325,1.058c0,0.442,0.114,0.803,0.343,1.082c0.229,0.277,0.51,0.417,0.842,0.417
			c0.312,0,0.576-0.141,0.793-0.421S93.402,12.645,93.402,12.221z"/>
		<path fill="#FCFCFC" d="M98.616,14.285h-0.79c0-0.088-0.293-0.549-0.878-1.384c-0.614-0.88-0.964-1.482-1.048-1.806h-0.052
			c0.053,0.466,0.079,0.888,0.079,1.266c0,0.525,0.016,1.167,0.046,1.924h-0.787c0.032-0.661,0.049-1.387,0.049-2.177
			c0-0.777-0.017-1.439-0.049-1.984h0.949c0,0.112,0.264,0.563,0.789,1.352c0.561,0.837,0.883,1.405,0.966,1.703h0.048
			c-0.051-0.475-0.077-0.901-0.077-1.278c0-0.577-0.015-1.169-0.044-1.776h0.799c-0.03,0.528-0.045,1.19-0.045,1.984
			C98.571,12.91,98.586,13.636,98.616,14.285z"/>
	</g>
</g>
</svg>
