<?xml version="1.0" encoding="utf-8"?>
<!-- Generator: Adobe Illustrator 16.0.1, SVG Export Plug-In . SVG Version: 6.00 Build 0)  -->
<!DOCTYPE svg PUBLIC "-//W3C//DTD SVG 1.1//EN" "http://www.w3.org/Graphics/SVG/1.1/DTD/svg11.dtd">
<svg version="1.1" id="Layer_1" xmlns="http://www.w3.org/2000/svg" xmlns:xlink="http://www.w3.org/1999/xlink" x="0px" y="0px"
	 width="25.422px" height="24.088px" viewBox="0 0 25.422 24.088" enable-background="new 0 0 25.422 24.088" xml:space="preserve">
<path fill="#FFFFFF" d="M7.144,13.001c0.058,0.875,0.285,1.739,0.754,2.5l3.945,6.906c0.289,0.522,0.523,1.099,0.638,1.681
	l0.175-0.291c0.987-1.687,0.987-3.834,0-5.515l-3.189-5.515c-0.988-1.681-0.988-3.829,0-5.515l0.172-0.285
	c0.117,0.58,0.35,1.158,0.64,1.68l2.902,5.046l1.855,3.255c0.29,0.521,0.523,1.101,0.638,1.686l0.176-0.293
	c0.985-1.681,0.985-3.772,0-5.509l0,0l-3.193-5.521c-0.986-1.683-0.986-3.83,0-5.511L12.83,1.51c0.117,0.58,0.35,1.16,0.639,1.681
	l4.005,6.91c0.521,0.924,0.755,1.969,0.755,3.016c4.235-1.104,7.195-3.478,7.195-6.211C25.423,3.071,19.735,0,12.713,0
	C5.691,0,0.001,3.071,0.001,6.905C-0.056,9.521,2.849,11.9,7.144,13.001z"/>
</svg>
