<?xml version="1.0" encoding="utf-8"?>
<!-- Generator: Adobe Illustrator 16.0.1, SVG Export Plug-In . SVG Version: 6.00 Build 0)  -->
<!DOCTYPE svg PUBLIC "-//W3C//DTD SVG 1.1//EN" "http://www.w3.org/Graphics/SVG/1.1/DTD/svg11.dtd">
<svg version="1.1" id="Layer_1" xmlns="http://www.w3.org/2000/svg" xmlns:xlink="http://www.w3.org/1999/xlink" x="0px" y="0px"
	 width="25.423px" height="24.088px" viewBox="0 0 25.423 24.088" enable-background="new 0 0 25.423 24.088" xml:space="preserve">
<path fill="#FFFFFF" d="M18.28,11.087c-0.058-0.875-0.286-1.739-0.754-2.5l-3.945-6.906C13.291,1.158,13.057,0.582,12.943,0
	l-0.175,0.291c-0.987,1.687-0.987,3.834,0,5.515l3.19,5.515c0.988,1.68,0.988,3.829,0,5.514l-0.172,0.285
	c-0.117-0.58-0.35-1.158-0.64-1.68l-2.902-5.045l-1.856-3.255c-0.29-0.522-0.523-1.101-0.637-1.686L9.575,5.747
	c-0.985,1.681-0.985,3.773,0,5.509l0,0l3.193,5.521c0.987,1.682,0.987,3.83,0,5.51l-0.174,0.291c-0.117-0.58-0.35-1.16-0.639-1.68
	l-4.005-6.91c-0.522-0.925-0.755-1.97-0.755-3.016C2.96,12.075,0,14.449,0,17.182c0,3.834,5.688,6.906,12.71,6.906
	s12.712-3.072,12.712-6.906C25.479,14.568,22.575,12.188,18.28,11.087z"/>
</svg>
