<?xml version="1.0" encoding="utf-8"?>
<!-- Generator: Adobe Illustrator 16.0.1, SVG Export Plug-In . SVG Version: 6.00 Build 0)  -->
<!DOCTYPE svg PUBLIC "-//W3C//DTD SVG 1.1//EN" "http://www.w3.org/Graphics/SVG/1.1/DTD/svg11.dtd">
<svg version="1.1" id="Layer_1" xmlns="http://www.w3.org/2000/svg" xmlns:xlink="http://www.w3.org/1999/xlink" x="0px" y="0px"
	 width="152.1px" height="44.33px" viewBox="0 0 152.1 44.33" enable-background="new 0 0 152.1 44.33" xml:space="preserve">
<g>
	<g>
		<path fill="#FFFFFF" d="M20.114,12.198c-0.065-0.963-0.317-1.913-0.83-2.75L14.941,1.85c-0.319-0.575-0.576-1.209-0.7-1.85
			l-0.193,0.319c-1.084,1.856-1.084,4.219,0,6.067l3.511,6.067c1.088,1.849,1.088,4.211,0,6.066l-0.19,0.313
			c-0.129-0.637-0.384-1.273-0.703-1.849l-3.192-5.55L11.43,7.854c-0.319-0.574-0.576-1.211-0.7-1.855l-0.194,0.324
			c-1.084,1.85-1.084,4.151,0,6.062l0,0l3.513,6.074c1.087,1.849,1.087,4.212,0,6.062l-0.191,0.32
			c-0.128-0.639-0.384-1.277-0.703-1.85L8.749,15.39c-0.575-1.017-0.831-2.166-0.831-3.317C3.256,13.285,0,15.897,0,18.903
			c0,4.217,6.258,7.598,13.984,7.598c7.727,0,13.985-3.381,13.985-7.598C28.032,16.028,24.838,13.41,20.114,12.198z M33.332,25.157
			c0.064-1.087,0.193-1.786,0.511-2.68c1.469,0.705,3.384,1.019,4.79,1.019c2.424,0,3.831-0.762,3.831-2.361
			c0-1.527-1.022-2.231-3.45-3.319l-1.34-0.506c-2.489-1.088-4.148-2.493-4.148-5.237c0-3.006,2.105-4.923,6.32-4.923
			c1.725,0,3.321,0.263,4.79,0.768c-0.066,1.025-0.256,1.857-0.513,2.619c-1.403-0.513-3.127-0.762-4.343-0.762
			c-2.296,0-3.318,0.887-3.318,2.298c0,1.338,1.022,2.168,2.871,2.938l1.406,0.574c3.321,1.401,4.724,2.937,4.724,5.486
			c0,3-2.296,5.112-6.767,5.112C36.589,26.183,34.8,25.856,33.332,25.157z M59.575,12.579v13.154h-2.68l-0.128-1.593
			c-0.766,1.148-1.853,1.918-3.703,1.918c-3.448,0-5.811-2.563-5.811-6.963c0-4.599,2.49-7.286,7.341-7.286
			C56.511,11.88,58.107,12.072,59.575,12.579z M56.702,22.734v-8.237c-0.575-0.124-1.275-0.124-2.107-0.124
			c-3.002,0-4.404,1.849-4.404,4.786c0,2.68,1.083,4.601,3.64,4.601C55.042,23.695,55.936,23.307,56.702,22.734z M74.391,16.921
			v8.813h-2.873v-8.3c0-2.111-0.704-3.061-3.578-3.061c-0.699,0-1.469,0.062-2.297,0.188v11.173h-2.874V12.579
			c1.853-0.443,3.896-0.77,5.237-0.77C72.858,11.88,74.391,13.729,74.391,16.921z M82.433,23.626c0.831,0,1.662-0.13,2.237-0.382
			c-0.063,0.763-0.187,1.665-0.316,2.426c-0.769,0.319-1.664,0.45-2.431,0.45c-2.809,0-4.595-1.279-4.595-4.476V7.793
			c0.894-0.318,1.98-0.444,2.868-0.444v4.974h4.598c-0.06,0.901-0.124,1.726-0.246,2.494h-4.352v6.448
			C80.196,22.921,81.032,23.626,82.433,23.626z M97.956,12.579v13.154H95.27l-0.127-1.593c-0.767,1.148-1.849,1.918-3.704,1.918
			c-3.442,0-5.806-2.563-5.806-6.963c0-4.599,2.487-7.286,7.335-7.286C94.887,11.88,96.419,12.072,97.956,12.579z M95.019,22.734
			v-8.237c-0.575-0.124-1.281-0.124-2.112-0.124c-2.998,0-4.406,1.849-4.406,4.786c0,2.68,1.088,4.601,3.643,4.601
			C93.356,23.695,94.312,23.307,95.019,22.734z M112.765,16.921v8.813h-2.938v-8.3c0-2.111-0.699-3.061-3.575-3.061
			c-0.698,0-1.468,0.062-2.298,0.188v11.173h-2.874V12.579c1.849-0.443,3.898-0.77,5.234-0.77
			C111.171,11.88,112.765,13.729,112.765,16.921z M127.385,7.349v18.385h-2.679l-0.13-1.663c-0.764,1.219-1.851,1.988-3.764,1.988
			c-3.448,0-5.812-2.563-5.812-6.963c0-4.599,2.485-7.286,7.344-7.286c0.769,0,1.468,0.07,2.169,0.194V7.66
			C125.412,7.412,126.433,7.349,127.385,7.349z M124.514,22.734v-8.112c-0.764-0.125-1.532-0.249-2.301-0.249
			c-2.868,0-4.212,1.785-4.212,4.786c0,2.68,1.088,4.601,3.638,4.601C122.787,23.695,123.75,23.307,124.514,22.734z M141.947,20.115
			h-9.262c0.389,2.362,1.725,3.448,4.347,3.448c1.597,0,3.191-0.319,4.597-1.018c-0.135,0.761-0.256,1.786-0.445,2.611
			c-1.343,0.576-2.687,0.832-4.281,0.832c-4.855,0-7.154-2.683-7.154-7.155c0-3.887,1.789-7.024,6.389-7.024
			c4.149,0,5.933,2.688,5.933,6.006C142.069,18.71,142.069,19.347,141.947,20.115z M132.686,17.684h6.519
			c0-2.162-1.152-3.443-3.13-3.443C133.967,14.303,132.88,15.452,132.686,17.684z M152.1,12.004c0,0.894-0.13,1.918-0.256,2.493
			c-0.699-0.063-1.336-0.124-2.175-0.124c-0.699,0-1.397,0.062-2.097,0.124v11.236h-2.878V12.579c1.214-0.443,3.318-0.77,4.912-0.77
			C150.445,11.88,151.463,11.88,152.1,12.004z"/>
	</g>
	<g>
		<path fill="#FFFFFF" d="M34.3,42.049c0.711,0.438,1.751,0.803,2.845,0.803c1.624,0,2.572-0.857,2.572-2.099
			c0-1.149-0.657-1.806-2.317-2.443c-2.006-0.712-3.247-1.751-3.247-3.484c0-1.915,1.587-3.338,3.977-3.338
			c1.259,0,2.171,0.292,2.718,0.603l-0.438,1.294c-0.401-0.218-1.222-0.582-2.334-0.582c-1.678,0-2.317,1.001-2.317,1.841
			c0,1.149,0.748,1.716,2.444,2.371c2.08,0.804,3.137,1.806,3.137,3.612c0,1.897-1.404,3.539-4.305,3.539
			c-1.186,0-2.48-0.347-3.137-0.784L34.3,42.049z"/>
		<path fill="#FFFFFF" d="M34.3,42.049l-0.087,0.141c0.737,0.453,1.801,0.826,2.932,0.827c0.84,0,1.524-0.221,2.001-0.622
			c0.478-0.398,0.738-0.979,0.736-1.642c0.003-0.604-0.18-1.113-0.582-1.527c-0.401-0.416-1.001-0.748-1.841-1.071h-0.002h-0.002
			c-1.988-0.715-3.135-1.692-3.137-3.329c0.004-1.813,1.485-3.163,3.811-3.172c1.233,0,2.119,0.286,2.636,0.581l0.082-0.145
			l-0.157-0.054l-0.438,1.296l0.157,0.052l0.08-0.145c-0.417-0.229-1.265-0.604-2.414-0.604c-0.871-0.001-1.498,0.262-1.903,0.652
			c-0.404,0.39-0.58,0.895-0.58,1.354c-0.003,0.61,0.209,1.102,0.639,1.493c0.429,0.393,1.056,0.701,1.911,1.032
			c2.061,0.808,3.022,1.731,3.031,3.458c-0.011,1.808-1.302,3.36-4.139,3.373c-1.152,0.003-2.436-0.347-3.045-0.756l-0.092,0.138
			l0.159,0.048l0.401-1.332L34.3,42.049l-0.087,0.141L34.3,42.049l-0.159-0.048l-0.401,1.332l-0.036,0.117l0.103,0.067
			c0.704,0.466,2.01,0.811,3.229,0.813c1.48,0,2.602-0.419,3.352-1.1s1.119-1.615,1.119-2.604c0.008-1.886-1.145-2.969-3.243-3.766
			c-0.841-0.325-1.436-0.627-1.806-0.969c-0.368-0.344-0.529-0.709-0.533-1.249c0.011-0.754,0.544-1.665,2.151-1.676
			c1.075,0,1.87,0.353,2.255,0.563l0.174,0.094l0.544-1.611l-0.119-0.068c-0.576-0.326-1.515-0.622-2.799-0.622
			c-1.227,0-2.262,0.366-2.992,0.99c-0.731,0.623-1.152,1.509-1.15,2.513c-0.002,1.83,1.332,2.931,3.357,3.64l0.056-0.155
			l-0.06,0.155c0.82,0.313,1.378,0.632,1.721,0.989c0.342,0.359,0.487,0.756,0.49,1.299c-0.009,1.145-0.837,1.918-2.407,1.933
			c-1.058,0.001-2.073-0.356-2.759-0.778l-0.183-0.113l-0.062,0.207L34.3,42.049z"/>
		<path fill="#FFFFFF" d="M44.46,39.86c0.036,2.17,1.423,3.064,3.028,3.064c1.149,0,1.842-0.202,2.444-0.457l0.274,1.149
			c-0.566,0.255-1.533,0.548-2.937,0.548c-2.718,0-4.341-1.787-4.341-4.451c0-2.662,1.568-4.762,4.141-4.762
			c2.882,0,3.648,2.537,3.648,4.16c0,0.328-0.036,0.583-0.054,0.748H44.46z M49.167,38.711c0.018-1.022-0.419-2.609-2.226-2.609
			c-1.623,0-2.335,1.496-2.462,2.609H49.167z"/>
		<path fill="#FFFFFF" d="M44.46,39.86l-0.166,0.002c0.018,1.118,0.39,1.939,0.981,2.467c0.589,0.528,1.38,0.762,2.212,0.762
			c1.167,0,1.894-0.207,2.509-0.47l-0.064-0.153l-0.161,0.038l0.274,1.149l0.161-0.038l-0.068-0.151
			c-0.544,0.246-1.487,0.533-2.869,0.533c-2.638-0.013-4.162-1.69-4.176-4.285c0.01-2.603,1.507-4.592,3.975-4.596
			c1.392,0.005,2.237,0.601,2.767,1.397c0.527,0.798,0.716,1.81,0.716,2.597c0,0.315-0.035,0.562-0.053,0.729l0.165,0.019v-0.166
			h-6.37l0.002,0.168L44.46,39.86v0.165h6.35l0.017-0.147c0.018-0.16,0.056-0.427,0.056-0.766c-0.001-0.836-0.195-1.904-0.771-2.78
			c-0.573-0.876-1.552-1.548-3.043-1.545c-1.332,0-2.42,0.549-3.162,1.441c-0.743,0.893-1.144,2.122-1.144,3.485
			c-0.001,1.365,0.417,2.522,1.197,3.338c0.78,0.818,1.916,1.278,3.31,1.278c1.428,0,2.418-0.297,3.005-0.562l0.125-0.057
			l-0.306-1.281l-0.045-0.191l-0.181,0.076c-0.588,0.25-1.248,0.441-2.379,0.443c-0.772,0-1.478-0.215-1.992-0.675
			c-0.513-0.462-0.852-1.176-0.871-2.227L44.46,39.86v0.165V39.86z M49.167,38.711l0.166,0.003l0-0.063
			c0-0.536-0.116-1.201-0.476-1.75c-0.357-0.549-0.982-0.968-1.916-0.966c-0.865-0.001-1.504,0.407-1.923,0.953
			c-0.42,0.544-0.636,1.222-0.703,1.804l-0.021,0.185h5.037l0.002-0.163L49.167,38.711v-0.166h-4.688v0.166l0.165,0.018
			c0.06-0.53,0.264-1.156,0.637-1.638c0.375-0.481,0.903-0.821,1.661-0.823c0.837,0.005,1.326,0.348,1.639,0.816
			c0.311,0.47,0.422,1.078,0.422,1.567l0,0.057L49.167,38.711v-0.166V38.711z"/>
		<rect x="52.706" y="31.031" fill="#FFFFFF" width="1.605" height="12.951"/>
		<polygon fill="#FFFFFF" points="52.706,31.031 52.706,31.196 54.145,31.196 54.145,43.816 52.871,43.816 52.871,31.031 
			52.706,31.031 52.706,31.196 52.706,31.031 52.54,31.031 52.54,44.148 54.476,44.148 54.476,30.865 52.54,30.865 52.54,31.031 		
			"/>
		<path fill="#FFFFFF" d="M57.904,39.86c0.036,2.17,1.423,3.064,3.027,3.064c1.149,0,1.843-0.202,2.444-0.457l0.273,1.149
			c-0.565,0.255-1.532,0.548-2.937,0.548c-2.718,0-4.341-1.787-4.341-4.451c0-2.662,1.569-4.762,4.141-4.762
			c2.881,0,3.647,2.537,3.647,4.16c0,0.328-0.036,0.583-0.055,0.748H57.904z M62.609,38.711c0.019-1.022-0.419-2.609-2.226-2.609
			c-1.622,0-2.334,1.496-2.462,2.609H62.609z"/>
		<path fill="#FFFFFF" d="M57.904,39.86l-0.166,0.002c0.018,1.118,0.39,1.939,0.98,2.467c0.59,0.528,1.381,0.762,2.213,0.762
			c1.168,0,1.894-0.207,2.509-0.47l-0.064-0.153l-0.161,0.038l0.273,1.149l0.161-0.038l-0.067-0.151
			c-0.545,0.246-1.488,0.533-2.869,0.533c-2.639-0.013-4.162-1.69-4.176-4.285c0.01-2.603,1.507-4.592,3.976-4.596
			c1.391,0.005,2.236,0.601,2.767,1.397c0.527,0.798,0.716,1.81,0.715,2.597c0,0.315-0.034,0.562-0.053,0.729l0.164,0.019v-0.166
			h-6.37l0.003,0.168L57.904,39.86v0.165h6.35l0.017-0.147c0.018-0.16,0.056-0.427,0.056-0.766c-0.001-0.836-0.195-1.904-0.771-2.78
			c-0.573-0.876-1.552-1.548-3.042-1.545c-1.332,0-2.421,0.549-3.163,1.441c-0.743,0.893-1.144,2.122-1.144,3.485
			c0,1.365,0.417,2.522,1.198,3.338c0.779,0.818,1.915,1.278,3.31,1.278c1.428,0,2.418-0.297,3.005-0.562l0.125-0.057l-0.306-1.281
			l-0.045-0.191l-0.181,0.076c-0.589,0.25-1.249,0.441-2.38,0.443c-0.772,0-1.478-0.215-1.992-0.675
			c-0.512-0.462-0.852-1.176-0.87-2.227L57.904,39.86v0.165V39.86z M62.609,38.711l0.166,0.003l0.001-0.063
			c-0.001-0.536-0.117-1.201-0.477-1.75c-0.357-0.549-0.981-0.968-1.916-0.966c-0.864-0.001-1.504,0.407-1.923,0.953
			c-0.421,0.544-0.636,1.222-0.703,1.804l-0.021,0.185h5.036l0.003-0.163L62.609,38.711v-0.166h-4.688v0.166l0.164,0.018
			c0.061-0.53,0.265-1.156,0.637-1.638c0.376-0.481,0.903-0.821,1.661-0.823c0.837,0.005,1.326,0.348,1.639,0.816
			c0.311,0.47,0.423,1.078,0.422,1.567v0.057L62.609,38.711v-0.166V38.711z"/>
		<path fill="#FFFFFF" d="M72.441,43.655c-0.419,0.217-1.349,0.51-2.535,0.51c-2.662,0-4.396-1.807-4.396-4.506
			c0-2.718,1.86-4.688,4.743-4.688c0.947,0,1.786,0.238,2.225,0.457l-0.364,1.241c-0.384-0.221-0.985-0.421-1.86-0.421
			c-2.025,0-3.119,1.496-3.119,3.338c0,2.043,1.313,3.303,3.063,3.303c0.913,0,1.515-0.238,1.972-0.438L72.441,43.655z"/>
		<path fill="#FFFFFF" d="M72.441,43.655l-0.075-0.147c-0.388,0.203-1.302,0.492-2.46,0.491c-2.582-0.01-4.218-1.714-4.229-4.34
			c0.01-2.639,1.774-4.513,4.577-4.523c0.919,0,1.743,0.236,2.151,0.44l0.073-0.148l-0.159-0.047l-0.364,1.241l0.159,0.047
			l0.081-0.146c-0.409-0.232-1.04-0.441-1.941-0.441c-1.054-0.001-1.887,0.395-2.444,1.035s-0.841,1.516-0.841,2.469
			c-0.001,1.058,0.341,1.929,0.922,2.531c0.579,0.605,1.393,0.938,2.308,0.938c0.941,0,1.575-0.249,2.037-0.453L72.17,42.45
			l-0.163,0.037l0.274,1.204L72.441,43.655l-0.075-0.147L72.441,43.655l0.163-0.038l-0.274-1.205l-0.044-0.193l-0.184,0.08
			c-0.45,0.196-1.021,0.423-1.904,0.424c-1.666-0.01-2.889-1.167-2.898-3.137c0.013-1.781,1.023-3.165,2.954-3.172
			c0.85,0,1.421,0.195,1.778,0.396l0.182,0.105l0.463-1.575l-0.124-0.063c-0.469-0.232-1.322-0.471-2.299-0.474
			c-1.479,0-2.712,0.509-3.57,1.375c-0.859,0.865-1.339,2.083-1.339,3.479c0,1.384,0.446,2.557,1.247,3.38
			c0.799,0.825,1.946,1.291,3.314,1.291c1.215-0.001,2.161-0.295,2.613-0.529l0.112-0.058l-0.027-0.126L72.441,43.655z"/>
		<path fill="#FFFFFF" d="M76.492,31.713v2.116h2.298v1.222h-2.298v6.086c0,1.095,0.31,1.715,1.204,1.715
			c0.419,0,0.729-0.055,0.929-0.11l0.073,1.205c-0.31,0.128-0.803,0.219-1.422,0.219c-0.748,0-1.351-0.238-1.734-0.676
			c-0.455-0.474-0.619-1.258-0.619-2.299v-6.14h-1.368v-1.222h1.368v-2.116H76.492z"/>
		<path fill="#FFFFFF" d="M76.492,31.713h-0.165v2.281h2.297v0.891h-2.297v6.252c0,0.562,0.074,1.02,0.292,1.358
			c0.218,0.342,0.593,0.525,1.077,0.521c0.432,0,0.758-0.056,0.973-0.115l-0.044-0.16l-0.165,0.011l0.072,1.204l0.166-0.01
			l-0.063-0.154c-0.279,0.116-0.756,0.207-1.359,0.207c-0.714,0-1.264-0.225-1.608-0.618l-0.003-0.003l-0.002-0.003
			c-0.406-0.416-0.576-1.158-0.575-2.185v-6.306H73.72v-0.891h1.203h0.165v-2.115h1.404V31.713h-0.165H76.492v-0.166h-1.569h-0.166
			v2.116h-1.202h-0.166v1.388v0.166h1.368v5.974c0.001,1.055,0.16,1.882,0.667,2.414l0.118-0.115l-0.124,0.11
			c0.422,0.481,1.077,0.73,1.858,0.73c0.637,0,1.145-0.092,1.485-0.23l0.109-0.046l-0.08-1.323l-0.013-0.201l-0.197,0.053
			c-0.187,0.051-0.481,0.104-0.885,0.104c-0.412-0.004-0.637-0.13-0.799-0.371c-0.162-0.245-0.242-0.645-0.239-1.178v-5.92h2.297
			v-1.388v-0.166h-2.297v-2.116h-0.166V31.713z"/>
	</g>
</g>
</svg>
