<?xml version="1.0" encoding="utf-8"?>
<!-- Generator: Adobe Illustrator 16.0.1, SVG Export Plug-In . SVG Version: 6.00 Build 0)  -->
<!DOCTYPE svg PUBLIC "-//W3C//DTD SVG 1.1//EN" "http://www.w3.org/Graphics/SVG/1.1/DTD/svg11.dtd">
<svg version="1.1" id="Layer_1" xmlns="http://www.w3.org/2000/svg" xmlns:xlink="http://www.w3.org/1999/xlink" x="0px" y="0px"
	 width="137.763px" height="24px" viewBox="0 0 137.763 24" enable-background="new 0 0 137.763 24" xml:space="preserve">
<g>
	<path fill="#FFFFFF" d="M18.218,11.048c-0.059-0.872-0.288-1.732-0.752-2.491l-3.933-6.882C13.244,1.155,13.012,0.581,12.899,0
		l-0.175,0.289c-0.982,1.681-0.982,3.821,0,5.496l3.181,5.495c0.985,1.675,0.985,3.815,0,5.495l-0.172,0.284
		c-0.117-0.576-0.348-1.154-0.637-1.675l-2.892-5.026l-1.851-3.244c-0.289-0.521-0.521-1.098-0.634-1.681L9.542,5.728
		c-0.982,1.675-0.982,3.759,0,5.49l0,0l3.181,5.501c0.985,1.675,0.985,3.815,0,5.491l-0.173,0.289
		c-0.116-0.578-0.348-1.156-0.637-1.676l-3.99-6.884c-0.521-0.922-0.752-1.963-0.752-3.005C2.949,12.033,0,14.398,0,17.122
		c0,3.819,5.668,6.881,12.667,6.881c6.999,0,12.667-3.062,12.667-6.881C25.39,14.518,22.498,12.146,18.218,11.048z M30.189,22.786
		c0.059-0.985,0.175-1.617,0.463-2.428c1.33,0.64,3.065,0.923,4.338,0.923c2.196,0,3.47-0.69,3.47-2.139
		c0-1.383-0.926-2.021-3.125-3.007l-1.214-0.458c-2.255-0.984-3.758-2.258-3.758-4.743c0-2.722,1.907-4.459,5.725-4.459
		c1.562,0,3.008,0.237,4.338,0.696c-0.06,0.928-0.232,1.681-0.464,2.371c-1.271-0.464-2.833-0.69-3.934-0.69
		c-2.08,0-3.005,0.804-3.005,2.082c0,1.211,0.925,1.964,2.601,2.66l1.273,0.521c3.008,1.269,4.278,2.659,4.278,4.969
		c0,2.717-2.08,4.63-6.129,4.63C33.141,23.714,31.52,23.42,30.189,22.786z M53.96,11.394v11.914h-2.428l-0.116-1.443
		c-0.693,1.041-1.678,1.737-3.354,1.737c-3.124,0-5.263-2.32-5.263-6.306c0-4.165,2.255-6.599,6.649-6.599
		C51.184,10.759,52.63,10.935,53.96,11.394z M51.357,20.591v-7.46c-0.521-0.113-1.155-0.113-1.908-0.113
		c-2.719,0-3.989,1.676-3.989,4.335c0,2.428,0.981,4.167,3.296,4.167C49.854,21.461,50.664,21.11,51.357,20.591z M67.379,15.326
		v7.981h-2.603v-7.517c0-1.912-0.637-2.773-3.241-2.773c-0.633,0-1.33,0.057-2.08,0.17v10.12h-2.604V11.394
		c1.678-0.402,3.529-0.696,4.744-0.696C65.99,10.759,67.379,12.435,67.379,15.326z M74.663,21.399c0.753,0,1.506-0.118,2.025-0.346
		c-0.056,0.69-0.17,1.507-0.287,2.197c-0.696,0.289-1.506,0.407-2.201,0.407c-2.542,0-4.16-1.159-4.16-4.053V7.058
		c0.809-0.289,1.794-0.402,2.597-0.402v4.505h4.165c-0.056,0.814-0.113,1.562-0.225,2.258h-3.94v5.841
		C72.637,20.76,73.396,21.399,74.663,21.399z M88.722,11.394v11.914h-2.434l-0.113-1.443c-0.695,1.041-1.675,1.737-3.355,1.737
		c-3.119,0-5.258-2.32-5.258-6.306c0-4.165,2.252-6.599,6.645-6.599C85.943,10.759,87.33,10.935,88.722,11.394z M86.062,20.591
		v-7.46c-0.521-0.113-1.16-0.113-1.912-0.113c-2.717,0-3.99,1.676-3.99,4.335c0,2.428,0.984,4.167,3.299,4.167
		C84.556,21.461,85.422,21.11,86.062,20.591z M102.136,15.326v7.981h-2.66v-7.517c0-1.912-0.635-2.773-3.238-2.773
		c-0.633,0-1.33,0.057-2.082,0.17v10.12h-2.604V11.394c1.676-0.402,3.531-0.696,4.742-0.696
		C100.692,10.759,102.136,12.435,102.136,15.326z M115.378,6.656v16.651h-2.428l-0.117-1.507c-0.691,1.104-1.676,1.801-3.408,1.801
		c-3.123,0-5.264-2.32-5.264-6.306c0-4.165,2.252-6.599,6.65-6.599c0.697,0,1.33,0.062,1.965,0.176V6.939
		C113.591,6.713,114.515,6.656,115.378,6.656z M112.776,20.591v-7.347c-0.691-0.113-1.387-0.227-2.084-0.227
		c-2.598,0-3.814,1.618-3.814,4.335c0,2.428,0.984,4.167,3.295,4.167C111.214,21.461,112.085,21.11,112.776,20.591z M128.567,18.22
		h-8.389c0.352,2.139,1.561,3.123,3.938,3.123c1.445,0,2.889-0.289,4.162-0.923c-0.121,0.69-0.232,1.619-0.402,2.366
		c-1.217,0.521-2.434,0.754-3.877,0.754c-4.398,0-6.48-2.43-6.48-6.481c0-3.52,1.619-6.361,5.785-6.361
		c3.758,0,5.375,2.434,5.375,5.438C128.679,16.945,128.679,17.523,128.567,18.22z M120.179,16.017h5.902
		c0-1.958-1.041-3.118-2.834-3.118C121.339,12.955,120.354,13.996,120.179,16.017z M137.763,10.873c0,0.809-0.117,1.736-0.232,2.258
		c-0.633-0.057-1.209-0.113-1.969-0.113c-0.633,0-1.268,0.057-1.9,0.113v10.177h-2.605V11.394c1.098-0.402,3.006-0.696,4.449-0.696
		C136.265,10.759,137.187,10.759,137.763,10.873z"/>
</g>
</svg>
