<?xml version="1.0" encoding="utf-8"?>
<!-- Generator: Adobe Illustrator 16.0.1, SVG Export Plug-In . SVG Version: 6.00 Build 0)  -->
<!DOCTYPE svg PUBLIC "-//W3C//DTD SVG 1.1//EN" "http://www.w3.org/Graphics/SVG/1.1/DTD/svg11.dtd">
<svg version="1.1" id="Layer_1" xmlns="http://www.w3.org/2000/svg" xmlns:xlink="http://www.w3.org/1999/xlink" x="0px" y="0px"
	 width="11.214px" height="12.847px" viewBox="0 0 11.214 12.847" enable-background="new 0 0 11.214 12.847" xml:space="preserve">
<path fill="#E30613" d="M10.845,8.621L7.281,6.423l3.563-2.197c0.382-0.235,0.484-0.761,0.229-1.174
	c-0.254-0.413-0.77-0.557-1.151-0.321L6.486,4.85V0.812C6.486,0.363,6.093,0,5.607,0S4.729,0.363,4.729,0.812V4.85L1.292,2.73
	C0.91,2.495,0.395,2.639,0.14,3.052C-0.115,3.465-0.012,3.99,0.37,4.226l3.563,2.197L0.37,8.621
	c-0.382,0.234-0.485,0.762-0.23,1.174c0.254,0.414,0.77,0.559,1.152,0.322l3.437-2.12v4.038c0,0.449,0.394,0.813,0.879,0.813
	s0.879-0.363,0.879-0.813V7.997l3.437,2.12c0.382,0.236,0.897,0.092,1.151-0.322C11.329,9.382,11.227,8.855,10.845,8.621z"/>
</svg>
