<?xml version="1.0" encoding="utf-8"?>
<!-- Generator: Adobe Illustrator 16.0.1, SVG Export Plug-In . SVG Version: 6.00 Build 0)  -->
<!DOCTYPE svg PUBLIC "-//W3C//DTD SVG 1.1//EN" "http://www.w3.org/Graphics/SVG/1.1/DTD/svg11.dtd">
<svg version="1.1" id="Layer_1" xmlns="http://www.w3.org/2000/svg" xmlns:xlink="http://www.w3.org/1999/xlink" x="0px" y="0px"
	 width="24.043px" height="24.313px" viewBox="0 0 24.043 24.313" enable-background="new 0 0 24.043 24.313" xml:space="preserve">
<path fill="#FFFFFF" d="M8.723,24.313c0,0,9.305,0,9.771,0c0.533-0.006,1.008-0.188,1.455-0.487
	c0.445-0.303,0.852-0.739,1.168-1.304c0.133-0.238,0.367-0.686,0.658-1.276c0.436-0.885,0.986-2.072,1.438-3.264
	c0.225-0.598,0.426-1.194,0.576-1.767c0.148-0.574,0.252-1.117,0.254-1.66c0-0.886,0-1.771,0-2.388
	c-0.006-0.517-0.127-1.06-0.48-1.575c-0.178-0.255-0.426-0.498-0.742-0.673c-0.314-0.177-0.695-0.273-1.076-0.272
	c-0.555,0-1.852,0-3.012,0s-2.18,0-2.182,0v1.143l1.035,0.483c0.074-0.162,0.135-0.327,0.211-0.542
	c0.26-0.737,0.631-1.98,0.949-3.237c0.16-0.627,0.305-1.254,0.412-1.822c0.105-0.573,0.18-1.066,0.184-1.525
	c-0.008-1.105-0.516-2.107-1.287-2.865C17.281,0.526,16.191,0.001,14.949,0c-0.617-0.003-1.204,0.143-1.673,0.464
	c-0.352,0.238-0.608,0.558-0.777,0.868c-0.253,0.47-0.343,0.916-0.409,1.293c-0.063,0.377-0.1,0.699-0.146,0.886
	c-0.016,0.064-0.065,0.236-0.137,0.449c-0.254,0.756-0.77,2.082-1.244,3.24c-0.24,0.58-0.47,1.123-0.654,1.534
	c-0.091,0.205-0.172,0.378-0.23,0.5C9.646,9.295,9.623,9.343,9.607,9.37L9.596,9.393l0.414,0.249L9.617,9.358L9.596,9.393
	l0.414,0.249L9.617,9.358C9.541,9.465,9.486,9.536,9.445,9.581c-0.064,0.065-0.08,0.078-0.156,0.112
	c-0.076,0.031-0.24,0.078-0.566,0.078c-1.158,0-5.562,0-6.251,0C1.94,9.775,1.385,9.893,0.878,10.253
	c-0.25,0.18-0.48,0.429-0.639,0.735C0.08,11.293-0.001,11.646,0,11.996c0,0.738,0,9.525,0,9.894c0,0.156,0.012,0.356,0.063,0.59
	c0.039,0.176,0.099,0.371,0.203,0.575c0.151,0.305,0.415,0.634,0.792,0.859c0.376,0.229,0.833,0.339,1.304,0.337
	c1.095,0,3.458,0,3.458,0h1.142V11.232H4.678v11.877h1.142v-1.143c0,0-2.363,0-3.458,0c-0.063,0-0.102-0.006-0.12-0.011
	l-0.014-0.004l-0.006,0.02l0.009-0.019l-0.002-0.001l-0.006,0.02l0.009-0.019l-0.074,0.158l0.129-0.114l-0.056-0.044l-0.074,0.158
	l0.129-0.114L2.19,22.08l0.113-0.056l-0.019-0.027L2.19,22.08l0.113-0.056L2.3,22.015L2.285,21.89c0-0.368,0-9.155,0-9.894V11.99
	l-0.167-0.019l0.138,0.089l0.029-0.07l-0.167-0.019l0.138,0.089L2.115,11.97l0.105,0.132l0.036-0.041L2.115,11.97l0.105,0.132
	L2.203,12.08l0.015,0.023l0.002-0.002L2.203,12.08l0.015,0.023c0.002-0.006,0.109-0.05,0.253-0.048c0.689,0,5.093,0,6.251,0
	c0.361,0,0.691-0.034,0.996-0.107c0.457-0.108,0.861-0.323,1.152-0.574c0.291-0.25,0.473-0.505,0.598-0.677
	c0.078-0.11,0.113-0.179,0.16-0.262c0.08-0.151,0.164-0.328,0.264-0.543c0.343-0.75,0.844-1.952,1.293-3.096
	c0.226-0.57,0.437-1.123,0.607-1.596c0.084-0.236,0.16-0.452,0.223-0.644c0.063-0.193,0.111-0.357,0.15-0.518
	c0.082-0.351,0.117-0.664,0.16-0.933c0.031-0.2,0.066-0.373,0.105-0.497c0.029-0.095,0.059-0.159,0.08-0.196
	c0.037-0.058,0.037-0.052,0.066-0.07c0.029-0.016,0.125-0.059,0.371-0.06c0.582-0.001,1.115,0.249,1.512,0.633
	c0.396,0.382,0.604,0.881,0.596,1.229c0,0.097-0.014,0.285-0.045,0.515c-0.111,0.815-0.428,2.132-0.748,3.283
	c-0.16,0.578-0.322,1.12-0.461,1.549c-0.068,0.214-0.131,0.4-0.184,0.545c-0.051,0.142-0.094,0.25-0.104,0.268l-0.76,1.626h1.795
	c0.002,0,1.021,0,2.182,0s2.457,0,3.012,0l0.008,0.001l0.016-0.116l-0.066,0.095l0.051,0.021l0.016-0.116l-0.066,0.095l0.059-0.083
	l-0.07,0.072l0.012,0.011l0.059-0.083l-0.07,0.072l0.002-0.003l-0.002,0.003l0,0l0.002-0.003l-0.002,0.003
	c0.004,0.005,0.027,0.04,0.043,0.094c0.018,0.054,0.027,0.123,0.025,0.174c0,0.616,0,1.502,0,2.388
	c0.006,0.302-0.107,0.9-0.316,1.564c-0.311,1.006-0.811,2.194-1.273,3.192c-0.461,0.996-0.893,1.821-1.045,2.096
	c-0.152,0.271-0.324,0.438-0.459,0.529c-0.066,0.046-0.123,0.072-0.158,0.084l-0.031,0.008l0.02,0.107v-0.107h-0.02l0.02,0.107
	v-0.107c-0.232,0-2.676,0-5.062,0c-1.192,0-2.37,0-3.249,0c-0.88,0-1.46,0-1.461,0V24.313z"/>
</svg>
