<?xml version="1.0" encoding="utf-8"?>
<!-- Generator: Adobe Illustrator 16.0.1, SVG Export Plug-In . SVG Version: 6.00 Build 0)  -->
<!DOCTYPE svg PUBLIC "-//W3C//DTD SVG 1.1//EN" "http://www.w3.org/Graphics/SVG/1.1/DTD/svg11.dtd">
<svg version="1.1" id="Layer_1" xmlns="http://www.w3.org/2000/svg" xmlns:xlink="http://www.w3.org/1999/xlink" x="0px" y="0px"
	 width="27.41px" height="25.992px" viewBox="0 0 27.41 25.992" enable-background="new 0 0 27.41 25.992" xml:space="preserve">
<g>
	<path fill="#FFFFFF" d="M15.219,24.131l-5.12-5.122H9.625c-2.03,0-3.858-0.82-5.19-2.15c-1.331-1.332-2.15-3.16-2.15-5.19V9.625
		c0-2.03,0.82-3.858,2.15-5.19c1.332-1.331,3.16-2.15,5.19-2.15h8.16c2.031,0,3.859,0.82,5.191,2.15
		c1.33,1.332,2.148,3.16,2.15,5.19v2.043c-0.002,2.03-0.82,3.858-2.15,5.19c-1.332,1.33-3.16,2.15-5.191,2.15h-0.475l-2.152,2.154
		l1.615,1.615l1.818-1.819l-0.807-0.808v1.143c5.316-0.001,9.625-4.31,9.625-9.626V9.625c0-5.316-4.309-9.625-9.625-9.625h-8.16
		C4.309,0.001,0,4.309,0,9.625v2.043c0,5.316,4.309,9.625,9.625,9.626v-1.143l-0.808,0.808l4.786,4.787L15.219,24.131L15.219,24.131
		z"/>
	<path fill="#FFFFFF" d="M12.104,8.293c0.002-0.378,0.158-0.718,0.443-0.99c0.287-0.269,0.691-0.445,1.158-0.445
		c0.466,0,0.871,0.176,1.158,0.445c0.285,0.271,0.441,0.612,0.443,0.99c-0.002,0.378-0.158,0.718-0.443,0.99
		c-0.287,0.269-0.692,0.445-1.158,0.445h-1.143v3.826h2.285V10.87h-1.143v1.143c1.049,0,2.016-0.4,2.723-1.065
		c0.707-0.661,1.164-1.609,1.164-2.655s-0.457-1.994-1.164-2.655c-0.707-0.665-1.674-1.065-2.723-1.065
		c-1.05,0-2.016,0.4-2.723,1.065c-0.707,0.661-1.164,1.609-1.163,2.655H12.104z"/>
	<circle fill="#FFFFFF" cx="13.705" cy="16.275" r="1.588"/>
</g>
</svg>
