<?xml version="1.0" encoding="utf-8"?>
<!-- Generator: Adobe Illustrator 16.0.1, SVG Export Plug-In . SVG Version: 6.00 Build 0)  -->
<!DOCTYPE svg PUBLIC "-//W3C//DTD SVG 1.1//EN" "http://www.w3.org/Graphics/SVG/1.1/DTD/svg11.dtd">
<svg version="1.1" id="Layer_1" xmlns="http://www.w3.org/2000/svg" xmlns:xlink="http://www.w3.org/1999/xlink" x="0px" y="0px"
	 width="26.223px" height="22.191px" viewBox="0 0 26.223 22.191" enable-background="new 0 0 26.223 22.191" xml:space="preserve">
<g>
	<g>
		<g>
			<path fill="#CC6600" d="M24.304,21.68v-0.512c-1.515,0-16.401,0-22.394,0c-0.207,0-0.357-0.035-0.466-0.08
				c-0.163-0.07-0.249-0.162-0.317-0.285C1.06,20.68,1.023,20.52,1.023,20.359c0-0.096,0.013-0.188,0.032-0.264
				c0.019-0.076,0.046-0.135,0.062-0.16C1.39,19.498,9.608,6.282,12.578,1.508c0.124-0.2,0.247-0.329,0.345-0.398
				c0.1-0.069,0.164-0.084,0.229-0.086c0.075,0.001,0.179,0.027,0.329,0.141c0.147,0.113,0.326,0.313,0.506,0.601
				c1.525,2.443,4.22,6.762,6.569,10.536c1.175,1.887,2.264,3.639,3.076,4.95c0.406,0.656,0.743,1.203,0.987,1.602
				c0.123,0.197,0.222,0.359,0.295,0.479c0.035,0.061,0.064,0.109,0.086,0.146c0.022,0.037,0.037,0.063,0.04,0.068
				c0.11,0.201,0.158,0.408,0.159,0.607c0,0.285-0.102,0.549-0.261,0.729c-0.079,0.092-0.171,0.162-0.276,0.209
				c-0.104,0.049-0.221,0.078-0.358,0.078V21.68v0.512c0.284,0,0.554-0.063,0.792-0.174c0.359-0.168,0.643-0.443,0.834-0.768
				c0.19-0.326,0.292-0.705,0.293-1.098c0-0.365-0.092-0.746-0.284-1.098c-0.016-0.029-0.032-0.059-0.058-0.1
				c-0.094-0.158-0.287-0.475-0.563-0.924C23.388,14.898,17.44,5.364,14.855,1.223c-0.229-0.362-0.473-0.654-0.752-0.87
				C13.826,0.139,13.5,0,13.151,0c-0.295-0.001-0.583,0.104-0.823,0.276c-0.24,0.172-0.441,0.406-0.619,0.691
				C8.739,5.741,0.52,18.957,0.248,19.395c-0.086,0.139-0.145,0.291-0.186,0.451C0.022,20.006,0,20.18,0,20.359
				c0,0.199,0.027,0.41,0.094,0.619c0.099,0.313,0.294,0.631,0.607,0.857c0.314,0.23,0.729,0.357,1.209,0.355
				c5.992,0,20.879,0,22.394,0V21.68z"/>
		</g>
		<g>
			<path fill="#CC6600" d="M14.135,14.104V7.995c0-0.564-0.458-1.023-1.023-1.023c-0.566,0-1.023,0.459-1.023,1.023v6.108
				c0,0.566,0.457,1.023,1.023,1.023C13.677,15.127,14.135,14.67,14.135,14.104"/>
		</g>
		<circle fill="#CC6600" cx="13.144" cy="18.197" r="1.075"/>
	</g>
</g>
</svg>
