<?xml version="1.0" encoding="utf-8"?>
<!-- Generator: Adobe Illustrator 16.0.1, SVG Export Plug-In . SVG Version: 6.00 Build 0)  -->
<!DOCTYPE svg PUBLIC "-//W3C//DTD SVG 1.1//EN" "http://www.w3.org/Graphics/SVG/1.1/DTD/svg11.dtd">
<svg version="1.1" id="Layer_1" xmlns="http://www.w3.org/2000/svg" xmlns:xlink="http://www.w3.org/1999/xlink" x="0px" y="0px"
	 width="24.754px" height="24.967px" viewBox="0 0 24.754 24.967" enable-background="new 0 0 24.754 24.967" xml:space="preserve">
<g>
	<path fill="#FFFFFF" d="M18.698,4.72c2.303,1.854,3.773,4.686,3.773,7.87c0,2.79-1.129,5.307-2.957,7.137
		c-1.83,1.828-4.346,2.955-7.137,2.955s-5.307-1.126-7.137-2.955c-1.829-1.83-2.956-4.347-2.957-7.137
		c0.001-3.259,1.54-6.148,3.935-7.998L4.825,2.783C1.892,5.043,0,8.6,0,12.59c0.001,6.836,5.542,12.377,12.377,12.377
		s12.377-5.541,12.377-12.377c0.002-3.899-1.807-7.386-4.625-9.65L18.698,4.72z"/>
	<rect x="11.235" fill="#FFFFFF" width="2.285" height="12.559"/>
</g>
</svg>
